<svg xmlns="http://www.w3.org/2000/svg" viewBox="0 0 500 140" width="500" height="140">
  <rect width="500" height="140" fill="#fafafa" rx="8"/>
  <text x="250" y="20" text-anchor="middle" font-family="monospace" font-size="11" fill="#666">grid-template-columns: 200px 1fr 2fr</text>
  <rect x="30" y="35" width="440" height="80" fill="none" stroke="#aaa" stroke-width="1.5" rx="6"/>
  <line x1="220" y1="35" x2="220" y2="115" stroke="#00BCD4" stroke-width="1" stroke-dasharray="3"/>
  <line x1="293" y1="35" x2="293" y2="115" stroke="#00BCD4" stroke-width="1" stroke-dasharray="3"/>
  <rect x="40" y="45" width="170" height="30" fill="#00BCD4" rx="4"/>
  <text x="125" y="64" text-anchor="middle" font-family="sans-serif" font-size="11" fill="#fff" font-weight="bold">200px (fija)</text>
  <rect x="230" y="45" width="53" height="30" fill="#26C6DA" rx="4"/>
  <text x="256" y="64" text-anchor="middle" font-family="sans-serif" font-size="11" fill="#fff" font-weight="bold">1fr</text>
  <rect x="303" y="45" width="155" height="30" fill="#4DD0E1" rx="4"/>
  <text x="380" y="64" text-anchor="middle" font-family="sans-serif" font-size="11" fill="#fff" font-weight="bold">2fr (el doble)</text>
  <rect x="50" y="85" width="150" height="25" fill="#B2EBF2" rx="3"/>
  <text x="125" y="102" text-anchor="middle" font-family="sans-serif" font-size="10" fill="#00838f">Item 1</text>
  <rect x="230" y="85" width="53" height="25" fill="#80DEEA" rx="3"/>
  <text x="256" y="102" text-anchor="middle" font-family="sans-serif" font-size="10" fill="#00838f">2</text>
  <rect x="303" y="85" width="155" height="25" fill="#4DD0E1" rx="3"/>
  <text x="380" y="102" text-anchor="middle" font-family="sans-serif" font-size="10" fill="#fff">Item 3 (ocupa el doble)</text>
</svg>
